<svg width="24" height="24" viewBox="0 0 24 24" fill="none" xmlns="http://www.w3.org/2000/svg">
<path d="M3.58696 13.779C5.36696 15.548 8.46996 17.999 12 17.999C15.53 17.999 18.634 15.548 20.413 13.779C20.883 13.312 21.118 13.079 21.267 12.62C21.374 12.293 21.374 11.707 21.267 11.38C21.117 10.922 20.882 10.688 20.413 10.221C18.633 8.452 15.531 6 12 6C8.46996 6 5.36596 8.452 3.58696 10.221C3.11696 10.688 2.88196 10.921 2.73296 11.38C2.62596 11.707 2.62596 12.293 2.73296 12.62C2.88296 13.078 3.11696 13.312 3.58696 13.779Z" stroke="#0C7FBB" stroke-width="2" stroke-linecap="round" stroke-linejoin="round"/>
<path d="M10 12C10 12.5304 10.2107 13.0391 10.5858 13.4142C10.9609 13.7893 11.4696 14 12 14C12.5304 14 13.0391 13.7893 13.4142 13.4142C13.7893 13.0391 14 12.5304 14 12C14 11.4696 13.7893 10.9609 13.4142 10.5858C13.0391 10.2107 12.5304 10 12 10C11.4696 10 10.9609 10.2107 10.5858 10.5858C10.2107 10.9609 10 11.4696 10 12Z" stroke="#0C7FBB" stroke-width="2" stroke-linecap="round" stroke-linejoin="round"/>
</svg>
