-56<svg width="24" height="24" viewBox="0 0 24 24" fill="none" xmlns="http://www.w3.org/2000/svg">
<path d="M3.5481 20.938H20.4481C20.5807 20.938 20.7079 20.8853 20.8016 20.7916C20.8954 20.6978 20.9481 20.5706 20.9481 20.438C20.9481 20.3054 20.8954 20.1782 20.8016 20.0845C20.7079 19.9907 20.5807 19.938 20.4481 19.938H3.5481C3.41549 19.938 3.28831 19.9907 3.19454 20.0845C3.10077 20.1782 3.0481 20.3054 3.0481 20.438C3.0481 20.5706 3.10077 20.6978 3.19454 20.7916C3.28831 20.8853 3.41549 20.938 3.5481 20.938ZM9.7101 17.18C10.1325 17.0618 10.5179 16.8381 10.8301 16.53L20.3701 6.99002C20.6968 6.66203 20.8802 6.21796 20.8802 5.75502C20.8802 5.29209 20.6968 4.84801 20.3701 4.52002L19.4301 3.59002C19.0974 3.27228 18.6551 3.09497 18.1951 3.09497C17.7351 3.09497 17.2927 3.27228 16.9601 3.59002L7.4201 13.12C7.11144 13.4302 6.89059 13.8166 6.7801 14.24L6.0401 17C6.00499 17.1261 6.00408 17.2592 6.03748 17.3858C6.07087 17.5123 6.13735 17.6277 6.2301 17.72C6.37164 17.8592 6.56162 17.938 6.7601 17.94L9.7101 17.18ZM10.1201 15.82C9.93574 16.0077 9.70434 16.1424 9.4501 16.21L8.48009 16.47L7.4801 15.47L7.7401 14.5C7.81004 14.2468 7.94441 14.0159 8.1301 13.83L8.5101 13.46L10.5001 15.45L10.1201 15.82ZM11.2101 14.74L9.2201 12.75L15.9501 6.02002L17.9401 8.01002L11.2101 14.74ZM19.6601 6.29002L18.6501 7.30002L16.6601 5.31002L17.6701 4.29002C17.7396 4.22024 17.8222 4.16487 17.9131 4.12708C18.0041 4.0893 18.1016 4.06985 18.2001 4.06985C18.2986 4.06985 18.3961 4.0893 18.4871 4.12708C18.578 4.16487 18.6606 4.22024 18.7301 4.29002L19.6601 5.23002C19.7996 5.37116 19.8778 5.56159 19.8778 5.76002C19.8778 5.95845 19.7996 6.14888 19.6601 6.29002Z" fill="black"/>
</svg>
 