<svg width="38" height="38" viewBox="0 0 38 38" fill="none" xmlns="http://www.w3.org/2000/svg">
<path d="M34.5254 15.8991H33.25V15.8334H19V22.1667H27.9482C26.6428 25.8535 23.1349 28.5 19 28.5C13.7536 28.5 9.50002 24.2464 9.50002 19C9.50002 13.7536 13.7536 9.50002 19 9.50002C21.4217 9.50002 23.6249 10.4136 25.3025 11.9059L29.7809 7.42744C26.9531 4.79198 23.1705 3.16669 19 3.16669C10.2561 3.16669 3.16669 10.2561 3.16669 19C3.16669 27.744 10.2561 34.8334 19 34.8334C27.744 34.8334 34.8334 27.744 34.8334 19C34.8334 17.9384 34.7241 16.9021 34.5254 15.8991Z" fill="#FFC107"/>
<path d="M4.99231 11.6304L10.1944 15.4454C11.6019 11.9605 15.0109 9.50002 19.0001 9.50002C21.4218 9.50002 23.625 10.4136 25.3025 11.9059L29.781 7.42744C26.9531 4.79198 23.1706 3.16669 19.0001 3.16669C12.9185 3.16669 7.64439 6.60015 4.99231 11.6304Z" fill="#FF3D00"/>
<path d="M18.9999 34.8334C23.0897 34.8334 26.8058 33.2682 29.6154 30.723L24.715 26.5763C23.0719 27.8258 21.0642 28.5017 18.9999 28.5C14.8817 28.5 11.3849 25.8741 10.0675 22.2095L4.9043 26.1876C7.52471 31.3152 12.8463 34.8334 18.9999 34.8334Z" fill="#4CAF50"/>
<path d="M34.5254 15.899H33.25V15.8333H19V22.1666H27.9482C27.3237 23.9213 26.1989 25.4546 24.7127 26.577L24.715 26.5754L29.6155 30.7222C29.2687 31.0373 34.8333 26.9166 34.8333 19C34.8333 17.9384 34.7241 16.9021 34.5254 15.899Z" fill="#1976D2"/>
</svg>
