<svg width="18" height="18" viewBox="0 0 18 18" fill="none" xmlns="http://www.w3.org/2000/svg">
<path d="M9 8C9.28333 8 9.521 7.904 9.713 7.712C9.905 7.52 10.0007 7.28267 10 7C10 6.71667 9.904 6.479 9.712 6.287C9.52 6.095 9.28267 5.99933 9 6C8.71667 6 8.479 6.096 8.287 6.288C8.095 6.48 7.99933 6.71733 8 7C8 7.28333 8.096 7.521 8.288 7.713C8.48 7.905 8.71733 8.00067 9 8ZM5 8C5.28333 8 5.521 7.904 5.713 7.712C5.905 7.52 6.00067 7.28267 6 7C6 6.71667 5.904 6.479 5.712 6.287C5.52 6.095 5.28267 5.99933 5 6C4.71667 6 4.479 6.096 4.287 6.288C4.095 6.48 3.99933 6.71733 4 7C4 7.28333 4.096 7.521 4.288 7.713C4.48 7.905 4.71733 8.00067 5 8ZM1 8C1.28333 8 1.521 7.904 1.713 7.712C1.905 7.52 2.00067 7.28267 2 7C2 6.71667 1.904 6.479 1.712 6.287C1.52 6.095 1.28267 5.99933 1 6C0.716667 6 0.479 6.096 0.287001 6.288C0.0950012 6.48 -0.000667572 6.71733 0 7C0 7.28333 0.0960007 7.521 0.288 7.713C0.48 7.905 0.717333 8.00067 1 8ZM1.05 18C3.2 18 5.296 17.525 7.338 16.575C9.38 15.625 11.1883 14.3583 12.763 12.775C14.3377 11.1917 15.6043 9.379 16.563 7.337C17.5217 5.295 18.0007 3.19933 18 1.05V0.525C18 0.341667 17.9833 0.166667 17.95 0H12.1L11.175 5.025L14.025 7.9C13.325 9.1 12.4457 10.225 11.387 11.275C10.3283 12.325 9.166 13.2333 7.9 14L5 11.1L0 12.1V17.95C0.166666 17.9667 0.341667 17.9793 0.525 17.988C0.708332 17.9967 0.883333 18.0007 1.05 18ZM14.975 6L13.325 4.35L13.75 2H15.975C15.8917 2.68333 15.775 3.35833 15.625 4.025C15.475 4.69167 15.2583 5.35 14.975 6ZM6.025 14.95C5.375 15.2333 4.71233 15.4583 4.037 15.625C3.36167 15.7917 2.68267 15.9 2 15.95V13.75L4.35 13.275L6.025 14.95Z" fill="black"/>
</svg>
